<svg xmlns="http://www.w3.org/2000/svg" viewBox="0 0 100 100" fill="#666">
    <!-- Simple Ganesha icon - replace with your preferred design -->
    <path d="M50 10c-22.1 0-40 17.9-40 40s17.9 40 40 40 40-17.9 40-40-17.9-40-40-40zm0 75c-19.3 0-35-15.7-35-35s15.7-35 35-35 35 15.7 35 35-15.7 35-35 35z"/>
    <path d="M65 45c0 8.3-6.7 15-15 15s-15-6.7-15-15 6.7-15 15-15 15 6.7 15 15zm-5 0c0-5.5-4.5-10-10-10s-10 4.5-10 10 4.5 10 10 10 10-4.5 10-10z"/>
    <path d="M50 65c-8.3 0-15 6.7-15 15h30c0-8.3-6.7-15-15-15z"/>
</svg> 