<svg xmlns="http://www.w3.org/2000/svg" viewBox="0 0 512 512" fill="#666">
    <title>Ganesha</title>
    <path d="M256 48C141.1 48 48 141.1 48 256s93.1 208 208 208 208-93.1 208-208S370.9 48 256 48zm0 384c-97.2 0-176-78.8-176-176S158.8 80 256 80s176 78.8 176 176-78.8 176-176 176z"/>
    <path d="M256 128c-70.7 0-128 57.3-128 128 0 70.7 57.3 128 128 128 70.7 0 128-57.3 128-128 0-70.7-57.3-128-128-128zm0 224c-52.9 0-96-43.1-96-96s43.1-96 96-96 96 43.1 96 96-43.1 96-96 96z"/>
    <path d="M256 192c-35.3 0-64 28.7-64 64s28.7 64 64 64 64-28.7 64-64-28.7-64-64-64zm0 96c-17.6 0-32-14.4-32-32s14.4-32 32-32 32 14.4 32 32-14.4 32-32 32z"/>
    <path d="M288 352h-64c-8.8 0-16 7.2-16 16v32c0 8.8 7.2 16 16 16h64c8.8 0 16-7.2 16-16v-32c0-8.8-7.2-16-16-16z"/>
    <path d="M352 256c0-8.8-7.2-16-16-16h-32v-32c0-8.8-7.2-16-16-16s-16 7.2-16 16v48c0 8.8 7.2 16 16 16h48c8.8 0 16-7.2 16-16z"/>
</svg> 